<svg width="20" height="20" viewBox="0 0 20 20" fill="none" xmlns="http://www.w3.org/2000/svg">
<path fill-rule="evenodd" clip-rule="evenodd" d="M3.74968 11.3927L11.2165 3.92591L13.5735 6.28293L6.1067 13.7497H3.74968L3.74968 11.3927ZM10.6272 2.15814C10.9527 1.8327 11.4803 1.8327 11.8057 2.15814L15.3413 5.69367C15.6667 6.01911 15.6667 6.54675 15.3413 6.87218L6.91909 15.2944C6.84095 15.3725 6.73497 15.4164 6.62447 15.4164H2.49968C2.26956 15.4164 2.08301 15.2298 2.08301 14.9997L2.08301 10.8749C2.08301 10.7644 2.12691 10.6584 2.20505 10.5803L10.6272 2.15814ZM2.49967 16.6664C2.26956 16.6664 2.08301 16.8529 2.08301 17.0831V17.9164C2.08301 18.1465 2.26956 18.3331 2.49967 18.3331H17.4997C17.7298 18.3331 17.9163 18.1465 17.9163 17.9164V17.0831C17.9163 16.8529 17.7298 16.6664 17.4997 16.6664H2.49967Z" fill="#131212"/>
</svg>
