<svg width="24" height="24" viewBox="0 0 24 24" fill="none" xmlns="http://www.w3.org/2000/svg">
<path d="M12 21.5C14.6235 21.5 16.9978 20.4372 18.7175 18.7175C20.4372 16.9978 21.5 14.6235 21.5 12C21.5 9.37654 20.4372 7.00222 18.7175 5.28248C16.9978 3.56278 14.6235 2.5 12 2.5C9.37653 2.5 7.00222 3.56278 5.28248 5.28249M12 21.5L5.28248 5.28249M12 21.5C9.37654 21.5 7.00222 20.4372 5.28248 18.7175C3.56278 16.9978 2.5 14.6235 2.5 12C2.5 9.37653 3.56277 7.00222 5.28248 5.28249M12 21.5L5.28248 5.28249" fill="#5C5BA0" stroke="#5C5BA0" stroke-linejoin="round"/>
<path d="M8 12L11 15L16.5 9.5" stroke="white" stroke-width="2" stroke-linecap="round" stroke-linejoin="round"/>
</svg>
