<svg width="21" height="20" viewBox="0 0 21 20" fill="none" xmlns="http://www.w3.org/2000/svg">
<path fill-rule="evenodd" clip-rule="evenodd" d="M8.31598 2.5539L8.31598 17.5539L8.31597 17.5825C8.31597 17.8795 7.95693 18.0282 7.74694 17.8182L3.86911 13.9404C3.71752 13.7888 3.7057 13.5469 3.8418 13.3812L4.27605 12.8527C4.43168 12.6633 4.71642 12.6485 4.89083 12.8208L6.64931 14.5581L6.64931 2.5539C6.64931 2.32378 6.83586 2.13724 7.06598 2.13724L7.89931 2.13724C8.12943 2.13724 8.31598 2.32379 8.31598 2.5539ZM14.1493 17.4998L14.1493 5.51656L15.9567 7.32479C16.1415 7.50971 16.449 7.48069 16.596 7.26444L17.0029 6.66564C17.1154 6.50022 17.0944 6.27824 16.9529 6.13681L13.0517 2.23554C12.8417 2.02555 12.4826 2.17427 12.4826 2.47124L12.4826 2.49985L12.4826 2.49984L12.4826 17.4998C12.4826 17.73 12.6692 17.9165 12.8993 17.9165L13.7326 17.9165C13.9628 17.9165 14.1493 17.73 14.1493 17.4998Z" fill="#131212"/>
</svg>
