<svg width="16" height="16" viewBox="0 0 16 16" fill="none" xmlns="http://www.w3.org/2000/svg">
<path fill-rule="evenodd" clip-rule="evenodd" d="M7.99967 13.3858C10.9744 13.3858 13.3858 10.9744 13.3858 7.99967C13.3858 5.02498 10.9744 2.61352 7.99967 2.61352C5.02498 2.61352 2.61352 5.02498 2.61352 7.99967C2.61352 10.9744 5.02498 13.3858 7.99967 13.3858ZM7.99967 14.6663C11.6816 14.6663 14.6663 11.6816 14.6663 7.99967C14.6663 4.31778 11.6816 1.33301 7.99967 1.33301C4.31778 1.33301 1.33301 4.31778 1.33301 7.99967C1.33301 11.6816 4.31778 14.6663 7.99967 14.6663Z" fill="#5E5E66"/>
<path d="M7.2933 11.1041C7.2933 10.841 7.50659 10.6277 7.76968 10.6277H8.24607C8.50916 10.6277 8.72245 10.841 8.72245 11.1041V11.5805C8.72245 11.8436 8.50916 12.0569 8.24607 12.0569H7.76968C7.50659 12.0569 7.2933 11.8436 7.2933 11.5805V11.1041Z" fill="#5E5E66"/>
<path fill-rule="evenodd" clip-rule="evenodd" d="M6.34067 6.4739C6.60373 6.47811 6.81284 6.25792 6.93222 6.02347C7.11906 5.65655 7.51694 5.38755 8.00792 5.38755C8.69492 5.38755 9.19899 5.91356 9.19899 6.49862C9.19899 6.72527 9.0378 6.9676 8.64522 7.21089C7.9848 7.62016 7.29345 8.36524 7.29337 9.36697C7.29336 9.53705 7.43122 9.67493 7.60129 9.67494L8.41455 9.67501C8.58462 9.67502 8.7225 9.53716 8.72252 9.36709C8.72254 9.06392 8.94928 8.70377 9.39804 8.42567C9.91598 8.1047 10.6281 7.48867 10.6281 6.49862C10.6281 5.06713 9.42583 3.9584 8.00792 3.9584C6.76452 3.9584 5.68746 4.8105 5.4407 5.98576C5.38664 6.24325 5.60128 6.46208 5.86435 6.46629L6.34067 6.4739Z" fill="#5E5E66"/>
</svg>
