<svg width="59" height="59" viewBox="0 0 59 59" fill="none" xmlns="http://www.w3.org/2000/svg">
    <circle opacity="0.05" cx="29.5" cy="29.5" r="29.5" fill="#E34949"/>
    <circle opacity="0.2" cx="29.7093" cy="29.2908" r="23.0142" fill="#E34949"/>
    <circle cx="29.7092" cy="29.2907" r="12.5532" fill="white"/>
    <path fill-rule="evenodd" clip-rule="evenodd" d="M29.5 12C20.3873 12 13 19.3873 13 28.5C13 37.6127 20.3873 45 29.5 45C38.6127 45 46 37.6127 46 28.5C46 19.3873 38.6127 12 29.5 12ZM24.8329 21.4999C24.1885 20.8555 23.1438 20.8555 22.4995 21.4999C21.8551 22.1442 21.8551 23.1889 22.4995 23.8333L27.1662 28.5001L22.4992 33.1671C21.8548 33.8115 21.8548 34.8562 22.4992 35.5006C23.1436 36.1449 24.1883 36.1449 24.8327 35.5006L29.4997 30.8335L34.1667 35.5006C34.8111 36.1449 35.8558 36.1449 36.5002 35.5006C37.1445 34.8562 37.1445 33.8115 36.5002 33.1671L31.8331 28.5001L36.4999 23.8333C37.1443 23.1889 37.1443 22.1442 36.4999 21.4999C35.8556 20.8555 34.8108 20.8555 34.1665 21.4999L29.4997 26.1666L24.8329 21.4999Z" fill="#E34949"/>
</svg>
