<svg width="59" height="59" viewBox="0 0 59 59" fill="none" xmlns="http://www.w3.org/2000/svg">
    <circle opacity="0.05" cx="29.5" cy="29.5" r="29.5" fill="#356DF3"/>
    <circle opacity="0.2" cx="29.7095" cy="29.2908" r="23.0142" fill="#356DF3"/>
    <path d="M46.0981 29.2906C46.0981 38.342 38.7605 45.6795 29.7092 45.6795C20.6579 45.6795 13.3203 38.342 13.3203 29.2906C13.3203 20.2393 20.6579 12.9017 29.7092 12.9017C38.7605 12.9017 46.0981 20.2393 46.0981 29.2906Z" fill="white"/>
    <path fill-rule="evenodd" clip-rule="evenodd" d="M13.3203 29.2906C13.3203 20.2393 20.6579 12.9017 29.7092 12.9017C38.7605 12.9017 46.0981 20.2393 46.0981 29.2906C46.0981 38.342 38.7605 45.6795 29.7092 45.6795C20.6579 45.6795 13.3203 38.342 13.3203 29.2906ZM31.5527 21.0963C31.5527 20.1912 30.8189 19.4574 29.9138 19.4574C29.0087 19.4574 28.2749 20.1912 28.2749 21.0963V29.969C28.2749 30.8772 28.6518 31.7447 29.3155 32.3646L34.3265 37.0441C34.988 37.6619 36.0251 37.6264 36.6429 36.9649C37.2606 36.3034 37.2252 35.2663 36.5636 34.6485L31.5527 29.969V21.0963Z" fill="#356DF3"/>
</svg>
