<svg width="59" height="59" viewBox="0 0 59 59" fill="none" xmlns="http://www.w3.org/2000/svg">
    <circle opacity="0.05" cx="29.5" cy="29.5" r="29.5" fill="#0BB88C"/>
    <circle opacity="0.2" cx="29.709" cy="29.2908" r="23.0142" fill="#0BB88C"/>
    <circle cx="29.7094" cy="29.2907" r="12.5532" fill="white"/>
    <path fill-rule="evenodd" clip-rule="evenodd" d="M30.0002 45.6667C39.2049 45.6667 46.6668 38.2048 46.6668 29C46.6668 19.7953 39.2049 12.3334 30.0002 12.3334C20.7954 12.3334 13.3335 19.7953 13.3335 29C13.3335 38.2048 20.7954 45.6667 30.0002 45.6667ZM37.7279 26.8924C38.3707 26.2496 38.3707 25.2073 37.7279 24.5645C37.0851 23.9216 36.0428 23.9216 35.4 24.5645L28.3541 31.6104L24.5798 27.8361C23.9369 27.1932 22.8947 27.1932 22.2518 27.8361C21.609 28.4789 21.609 29.5212 22.2518 30.164L27.1901 35.1023C27.8329 35.7451 28.8752 35.7451 29.518 35.1023L37.7279 26.8924Z" fill="#0BB88C"/>
</svg>
